<svg width="1123" height="369" viewBox="0 0 1123 369" fill="none" xmlns="http://www.w3.org/2000/svg">
<path d="M860.54 116.293C860.54 134.604 864.883 153.555 864.883 170.59C864.883 190.638 859.552 204.073 834.477 193.515C826.918 190.332 796.099 172.762 819.274 172.762C832.328 172.762 867.092 202.847 866.814 202.927C846.742 208.661 823.999 198.156 804.071 206.546C779.094 217.063 783.407 208.098 801.899 218.371C816.432 226.445 838.388 240.523 856.196 232.609C869.446 226.72 834.848 242.394 825.79 250.949C810.281 265.596 804.071 292.914 804.071 313.451C804.071 323.329 812.968 295.668 819.033 287.871C827.149 277.436 837.249 257.791 842.199 245.64C846.028 236.242 877.915 208.616 877.915 222.956C877.915 247.41 877.915 271.863 877.915 296.317C877.915 303.241 875.372 311.762 884.43 311.762C895.511 311.762 891.119 292.533 890.946 284.734C890.56 267.378 884.642 245.655 869.227 235.746C864.772 232.882 849.524 216.199 857.161 216.199C895.806 216.199 931.617 238.268 969.133 246.605C979.91 249 1042.57 259.674 1003.4 240.09C976.103 226.441 950.722 211.044 921.352 204.133C903.857 200.017 849.565 207.512 867.538 207.512C902.011 207.512 936.976 189.989 968.168 177.106C976.381 173.713 990.852 168.172 990.852 157.559C990.852 143.323 939.29 151.136 930.04 155.387C912.932 163.247 902.097 189.123 884.189 194.239C870.149 198.251 875.981 191.284 884.43 179.277C892.33 168.052 900.969 154.491 907.356 142.356C910.684 136.032 916.611 123.442 917.008 116.293C917.585 105.908 907.934 105.648 903.977 96.7463C893.774 73.7884 889.053 99.2849 887.567 110.984C883.358 144.131 888.919 178.112 886.361 211.373C885.472 222.926 880.753 233.412 877.673 244.192C875.58 251.518 865.591 226.386 864.883 224.887C849.593 192.506 841.746 155.734 819.515 127.152C813.365 119.245 809.806 115.686 801.899 109.536C790.435 100.619 795.13 120.45 795.384 129.324C796.188 157.469 865.062 160.305 883.224 180.484C887.969 185.757 890.946 186.732 890.946 194.481C890.946 194.782 882.34 169.182 880.087 161.42C873.078 137.28 859.351 97.8729 878.156 76.7168C882.656 71.6548 899.633 43.8153 899.633 64.1682C899.633 89.8323 889.164 121.18 882.258 145.734C877.283 163.426 871.759 180.257 869.469 198.583C868.912 203.035 868.393 222.523 869.227 207.512C870.298 188.241 904.425 160.162 916.043 146.699C929.964 130.569 943.515 119.109 958.757 105.192C981.754 84.1949 1010.58 71.3774 1035.98 53.7915C1048.03 45.4448 1023.1 68.5502 1021.26 70.4425C987.021 105.658 975.488 151.826 931.97 179.519C905.614 196.291 878.582 202.056 847.267 187.965C818.462 175.003 785.743 168.753 756.29 156.352C752.767 154.869 737.107 153.219 735.536 150.078C733.87 146.744 766.357 146.699 767.632 146.699C795.259 146.699 820.295 150.635 847.026 157.317C874.143 164.097 901.019 172.497 928.109 179.036C934.693 180.625 971.88 189.975 969.133 190.137C924.815 192.744 878.657 185.899 835.443 199.79C821.022 204.425 808.045 221.602 796.831 231.161C789.589 237.335 760.634 254.525 760.634 265.67C760.634 268.803 764.393 260.54 766.908 258.671C776.309 251.688 787.541 247.955 797.555 242.02C811.94 233.496 830.128 221.458 847.508 220.543C870.708 219.322 892.1 221.682 910.493 235.987C915.586 239.949 957 274.583 949.345 276.77C927.094 283.128 914.853 211.855 890.946 211.855C856.286 211.855 819.055 251.137 787.661 263.98C777.835 268 764.977 269.683 764.977 281.355C764.977 293.289 774.533 291.503 782.594 285.458C800.051 272.365 826.342 242.262 849.68 242.262C873.532 242.262 893.982 247.965 913.63 261.567C928.881 272.126 959.997 289.016 969.133 305.005C973.565 312.76 981.933 318.716 986.508 326.723C988.821 330.771 991.135 327.199 989.887 323.828C983.612 306.884 964.359 289.676 952.724 276.529C946.14 269.091 872.815 201.941 886.602 193.515C901.095 184.659 909.819 174.781 926.661 168.418C948.559 160.145 970.131 160.966 993.024 159.489C1012.3 158.245 1032.49 153.541 1051.66 150.802C1064.18 149.014 1081.72 144.899 1056.49 147.665C1005.16 153.29 955.022 161.897 903.977 169.383C886.434 171.956 871.939 177.106 854.024 177.106C820.217 177.106 780.619 171.084 747.844 179.277C743.177 180.444 706.766 188.517 729.503 189.895C777.208 192.787 825.774 190.137 873.571 190.137C897.542 190.137 921.513 190.137 945.484 190.137C966.087 190.137 949.895 191.817 938.244 199.307C912.312 215.977 890.151 235.244 873.571 260.602C861.505 279.055 846.135 296.859 835.443 316.105C831.298 323.566 826.273 330.1 822.411 337.824C813.393 355.861 836.318 299.875 845.337 281.838C852.176 268.16 872.676 244.449 873.571 229.23C874.17 219.046 878.906 218.43 882.741 227.059C887.358 237.447 900.039 240.322 903.977 253.121C908.071 266.425 916.155 275.527 917.008 290.043C917.74 302.482 930.04 316.265 930.04 329.137" stroke="#1E1E1E" stroke-width="2.58643" stroke-linecap="round" stroke-linejoin="round"/>
<path d="M1008.97 367.088C1036.06 367.088 1069.32 340.107 1079.92 316.259C1085.51 303.69 1098.59 289.828 1098.59 275.595C1098.59 263.078 1098.59 250.561 1098.59 238.044C1098.59 224.599 1102.19 206.83 1094.03 225.181C1091.52 230.821 1082.47 252.477 1084.49 247.588C1086.97 241.549 1099.3 224.23 1103.16 228.086C1110.37 235.3 1116.54 242.404 1121 251.322" stroke="#1E1E1E" stroke-width="2.58643" stroke-linecap="round" stroke-linejoin="round"/>
<path d="M811.047 42.1973C757.121 42.1973 698.74 79.9145 669.141 125.184C661.539 136.809 665.406 157.574 665.406 171.034C665.406 196.189 662.319 186.489 645.074 176.635C634.777 170.751 663.542 178.131 669.97 183.274C680.442 191.651 691.547 168.359 691.547 161.698" stroke="#1E1E1E" stroke-width="2.58643" stroke-linecap="round" stroke-linejoin="round"/>
<path d="M147.544 118.09C147.544 110.357 118.476 91.5119 118.476 108.4C118.476 127.379 121.706 145.667 121.706 164.922C121.706 179.957 114.746 202.064 133.01 202.064C150.809 202.064 150.774 191.537 150.774 176.226" stroke="#1E1E1E" stroke-width="2.58643" stroke-linecap="round" stroke-linejoin="round"/>
<path d="M36.0591 52.2386C221.157 52.2386 404.948 36.8535 589.92 36.8535C616.818 36.8535 605.305 206.223 605.305 236.859C605.305 259.171 614.595 334.298 581.373 334.298C463.977 334.298 347.566 334.928 230.936 324.326C194.354 321 161.574 316.158 125.52 309.795C109.994 307.055 94.3724 298.399 79.65 298.399C64.8166 298.399 51.4441 300.261 51.4441 281.874C51.4441 244.927 46.3158 206.117 46.3158 167.911C46.3158 132.245 51.827 88.9027 36.0591 57.3669" stroke="#1E1E1E" stroke-width="2.58643" stroke-linecap="round" stroke-linejoin="round"/>
<path d="M37.6027 53.9917C37.6027 136.414 33.2698 220.106 37.6027 302.433C37.8133 306.433 40.6252 311.848 42.2519 315.509C43.8614 319.13 42.8331 319.034 42.8331 313.184C42.8331 296.815 42.8331 280.446 42.8331 264.077C42.8331 196.092 45.9226 127.299 42.6878 59.3673C41.8414 41.5933 38.8054 24.1069 40.3632 6.19226C41.156 -2.92535 44.5866 10.1858 44.8671 12.149C46.4137 22.975 47.506 34.2075 47.9181 45.1292C50.5377 114.549 45.7049 183.44 37.6027 252.309C35.0315 274.164 32.3724 295.893 32.3724 317.978C32.3724 327.299 29.7329 341.624 34.9876 349.506" stroke="#F24822" stroke-width="5.17286" stroke-linecap="round" stroke-linejoin="round"/>
<path d="M34.9875 349.506C87.3877 349.506 139.788 349.506 192.188 349.506C220.688 349.506 249.271 350.142 277.762 349.361C314.457 348.356 350.499 341.661 387.309 341.661C427.185 341.661 466.751 336.757 506.589 336.431C519.181 336.327 556.956 336.431 544.364 336.431C413.17 336.431 281.976 336.431 150.781 336.431C104.529 336.431 59.0248 341.661 13.0492 341.661C-36.8529 341.661 112.753 346.263 162.55 349.506C307.089 358.921 452.457 357.352 597.249 357.352" stroke="#F24822" stroke-width="5.17286" stroke-linecap="round" stroke-linejoin="round"/>
<path d="M586.788 33.0706C586.788 118.887 586.788 204.703 586.788 290.519C586.788 311.912 583.622 337.771 589.549 358.514C590.344 361.299 592.235 353.251 592.6 350.378C596.037 323.311 597.609 295.913 599.864 268.726C604.762 209.684 605.094 151.272 605.094 92.0572C605.094 68.3577 604.847 46.2997 600.445 23.1911C600.319 22.5267 598.044 9.28541 597.394 15.7815C594.086 48.8668 596.85 84.126 597.394 117.337C598.134 162.501 602.049 206.568 612.94 250.13" stroke="#F24822" stroke-width="5.17286" stroke-linecap="round" stroke-linejoin="round"/>
<path d="M40.2178 25.2255C101.529 25.2255 162.84 25.2255 224.151 25.2255C319.473 25.2255 414.2 34.5783 509.495 35.5408C549.965 35.9496 591.209 37.671 631.682 35.5408C643.411 34.9235 654.624 30.4558 666.26 30.4558C706.795 30.4558 585.19 30.3595 544.655 30.4558C454.938 30.6689 365.543 37.7373 275.873 38.3013C212.201 38.7017 148.712 48.762 85.2568 48.762C-70.8324 48.762 709.606 46.1468 553.517 46.1468C545.29 46.1468 537.027 44.2125 528.964 42.9505C476.098 34.6759 422.813 29.4428 369.438 25.8066C297.13 20.8805 224.519 22.6103 152.089 22.6103C116.609 22.6103 74.8474 28.6525 40.2178 19.9951" stroke="#F24822" stroke-width="5.17286" stroke-linecap="round" stroke-linejoin="round"/>
<path d="M149.735 127.31C149.735 123.428 145.696 120.526 144.49 117.208C142.943 112.955 140.071 110.131 136.233 107.689C127.233 101.962 121.767 110.079 120.206 119.442C117.827 133.714 122.546 148.646 123.46 162.813C124.037 171.749 124.768 190.564 133.999 195.692C136.393 197.023 138.568 200.743 141.43 200.743C146.817 200.743 149.841 195.033 151.435 190.253C153.31 184.627 154.106 180.536 154.106 174.517C154.106 172.563 154.598 169.9 154.057 168.009C153.146 164.818 153.008 174.565 152.358 177.82C150.351 187.854 148.335 197.247 135.748 197.247C132.873 197.247 127.423 198.31 125.257 196.372C119.927 191.604 120.886 181.812 120.886 175.391C120.886 153.592 117.389 132.098 117.389 110.263C117.389 106.973 115.645 98.8729 120.012 97.7813C128.641 95.6239 134.389 101.169 139.73 106.815C143.061 110.336 145.321 115.93 146.19 120.705C146.581 122.86 144.971 128.569 146.675 129.933C147.583 130.659 146.829 132.189 147.549 129.884C149.005 125.225 148.861 119.809 148.861 114.974C148.861 111.102 148.441 106.616 144.49 104.581C140.553 102.553 124.934 97.1884 123.46 102.347C122.842 104.509 122.635 106.422 122.635 108.952C122.635 110.596 121.108 120.413 120.886 115.751C120.568 109.068 119.592 108.856 126.18 105.892C130.712 103.853 137.319 102.988 142.304 103.755C152.664 105.349 152.358 119.352 152.358 127.31" stroke="#1E1E1E" stroke-width="5.17286" stroke-linecap="round" stroke-linejoin="round"/>
<path d="M172.129 110.7C172.129 130.799 175.29 149.215 175.29 169.96C175.29 179.358 171.778 194.454 184.772 194.454C189.449 194.454 195.223 195.38 199.784 194.367C204.664 193.282 205.815 183.907 206.808 179.442C211.544 158.129 207.741 133.046 206.895 111.051C206.623 103.976 195.398 108.575 192.673 105.169C189.205 100.834 183.443 106.677 180.733 107.452C175.745 108.877 172.162 111.137 180.031 110.7C185.163 110.415 190.623 107.539 195.834 107.539" stroke="#1E1E1E" stroke-width="5.17286" stroke-linecap="round" stroke-linejoin="round"/>
<path d="M195.835 107.539C192.037 107.539 180.899 105.765 178.803 109.119C175.694 114.093 175.291 119.669 175.291 125.712C175.291 141.693 173.711 158.326 173.711 174.613C173.711 179.856 176.582 187.141 180.383 190.942C185.814 196.374 188.999 196.034 196.625 196.034C201.838 196.034 203.718 180.05 204.965 175.842C207.477 167.363 206.896 158.35 206.896 149.416C206.896 137.784 212.649 110.7 195.835 110.7C191.422 110.7 180.529 111.602 181.612 110.7C184.363 108.407 200.54 101.173 203.736 105.169C215.463 119.827 213.218 135.645 213.218 153.981C213.218 159.921 208.846 167.265 208.477 173.91C208.269 177.65 204.756 189.306 201.278 191.293C165.544 211.713 174.658 143.546 173.711 126.502C173.384 120.622 168.545 111.233 177.661 109.207C185.132 107.547 191.188 105.959 198.995 105.959C214.875 105.959 216.378 127.644 216.378 139.496C216.378 146.275 217.618 154.684 215.588 161.18C213.875 166.662 212.262 174.613 211.637 180.232C211.301 183.255 209.587 186.593 207.774 188.923C206.264 190.865 199.081 192.874 201.541 192.874C206.499 192.874 207.536 178.72 208.828 175.491C214.698 160.815 211.637 139.553 211.637 123.693C211.637 109.956 193.867 110.7 183.192 110.7" stroke="#1E1E1E" stroke-width="5.17286" stroke-linecap="round" stroke-linejoin="round"/>
<path d="M151.586 189.712C146.429 194.87 139.516 194.453 132.623 194.453C129.864 194.453 124.859 186.715 126.389 189.01C128.038 191.483 129.255 194.731 131.833 196.736C133.826 198.286 137.886 199.194 137.364 199.194C131.582 199.194 132.959 196.575 129.462 192.873C122.161 185.142 124.721 172.48 124.721 162.496C124.721 154.68 127.168 142.226 123.931 135.105C120.13 126.741 122.372 115.512 119.893 106.836C117.419 98.1777 132.244 99.6366 137.364 99.6366C147.463 99.6366 154.747 106.173 154.747 116.668C154.747 126.753 154.505 117.095 149.216 112.981C146.513 110.879 140.818 109.118 147.635 109.118C151.882 109.118 151.586 114.726 151.586 117.81C151.586 120.948 150.882 124.436 152.815 126.852C153.714 127.976 155.538 134.997 152.815 131.593C151.386 129.806 151.586 122.96 151.586 128.082C151.586 136.272 149.861 127.082 148.777 123.692C148.005 121.281 148.426 130.205 148.426 132.032C148.426 134.147 146.845 123.772 146.845 125.887C146.845 133.182 149.877 125.785 149.918 125.887C150.079 126.289 150.621 136.596 151.498 133.525C155.264 120.346 140.628 101.217 127.882 101.217" stroke="#1E1E1E" stroke-width="5.17286" stroke-linecap="round" stroke-linejoin="round"/>
<path d="M232.18 191.293C232.18 166.799 232.18 142.305 232.18 117.81C232.18 112.099 229.895 106.065 236.131 107.451C240.561 108.435 240.733 114.381 244.032 117.02C251.226 122.775 249.391 140.338 253.075 148.626C255.051 153.072 254.973 162.104 257.816 165.658C260.569 169.099 258.361 176.611 260.976 179.88C262.768 182.12 265.366 189.015 265.366 192.171C265.366 197.12 266.913 182.187 269.317 177.861C274.898 167.815 273.267 151.371 273.267 140.022C273.267 134.725 273.267 129.428 273.267 124.132C273.267 120.4 269.077 110.974 271.687 112.28" stroke="#1E1E1E" stroke-width="5.17286" stroke-linecap="round" stroke-linejoin="round"/>
<path d="M271.687 110.699C271.687 129.01 276.428 147.456 276.428 166.009C276.428 171.777 278.617 188.974 270.809 191.205C262.235 193.655 261.519 171.825 258.694 167.94C253.67 161.032 251.371 148.464 249.476 139.934C247.808 132.432 242.562 124.67 241.662 117.02C240.868 110.269 227.284 105.995 232.97 116.23C235.827 121.372 236.921 132.403 236.921 138.354C236.921 153.63 236.921 168.906 236.921 184.182C236.921 186.81 235.341 194.536 235.341 191.907C235.341 187.539 233.761 183.239 233.761 178.651C233.761 169.403 233.761 160.156 233.761 150.908C233.761 141.609 235.341 132.443 235.341 123.341C235.341 119.845 235.15 117.055 236.57 113.859C239.098 108.172 238.718 113.348 240.96 116.23C250.483 128.474 252.709 145.571 259.396 159.687C263.547 168.451 264.687 176.311 270.809 184.182C274.289 188.655 273.267 182.593 273.267 179.353C273.267 171.744 273.267 164.136 273.267 156.527C273.267 147.309 273.267 138.09 273.267 128.872C273.267 125.812 272.544 107.163 275.199 115.791C278.757 127.356 278.008 139.853 278.008 151.874C278.008 162.604 279.553 173.595 275.199 183.392C273.339 187.575 274.848 182.764 274.848 179.88C274.848 173.442 274.848 167.004 274.848 160.565C274.848 152.608 276.428 144.247 276.428 136.773C276.428 129.868 281.409 119.74 274.497 114.211C270.842 111.287 274.818 116.511 274.848 117.02C275.067 120.755 275.685 126.992 277.218 130.365C279.282 134.905 278.988 143.582 279.501 148.713C280.12 154.907 279.589 161.356 279.589 167.589C279.589 171.806 279.388 178.481 276.428 181.811C274.596 183.873 272.323 186.304 271.599 188.835C269.704 195.47 257.823 170.407 257.114 169.52C253.401 164.88 255.432 154.268 250.353 150.206C246.34 146.995 246.155 137.254 242.891 133.174C239.466 128.893 237.1 122.299 235.341 117.02" stroke="#1E1E1E" stroke-width="5.17286" stroke-linecap="round" stroke-linejoin="round"/>
<path d="M271.827 108.961C274.008 108.961 277.116 107.553 279.125 108.669C282.468 110.527 280.585 120.369 280.585 123.849C280.585 125.682 280.693 127.563 280.585 129.396C280.503 130.793 278.218 125.407 277.99 124.757C277.123 122.279 277.357 119.727 276.628 117.265C276.309 116.19 277.079 113.747 276.206 113.048C275.289 112.314 274.483 112.464 273.287 112.464C271.221 112.464 274.324 111.091 274.747 110.713C279.503 106.457 279.433 113.092 280.715 116.681C283.223 123.705 282.92 131.103 282.92 138.607C282.92 153.96 283.518 169.511 281.201 184.568C280.651 188.144 278.839 187.308 276.628 189.077C275.202 190.218 270.869 189.13 269.946 190.699C269.319 191.765 267.703 192.45 268.616 192.45C269.881 192.45 271.146 192.45 272.411 192.45C273.793 192.45 274.846 191.866 276.206 191.866C277.344 191.866 277.594 190.699 278.833 190.699" stroke="#1E1E1E" stroke-width="5.17286" stroke-linecap="round" stroke-linejoin="round"/>
<path d="M237.382 114.8C237.382 116.748 237.836 118.859 238.679 120.638C239.665 122.719 237.185 117.461 236.214 116.551C233.399 113.912 240.403 123.187 241.339 126.931C241.845 128.955 243.567 130.768 243.804 132.899C244.233 136.763 247.152 140.411 247.307 144.446C247.431 147.659 249.565 150.506 250.259 153.625C250.98 156.873 252.97 159.696 253.697 162.966C254.612 167.086 257.032 171.061 257.784 175.195C258.476 179.005 260.458 182.589 261.287 186.32C261.984 189.46 264.681 191.585 265.99 194.202" stroke="#1E1E1E" stroke-width="5.17286" stroke-linecap="round" stroke-linejoin="round"/>
<path d="M298.684 106.625C308.65 106.625 318.466 107.793 328.59 107.793C333.401 107.793 338.212 107.793 343.023 107.793C344.86 107.793 353.31 106.116 354.149 107.793" stroke="#1E1E1E" stroke-width="5.17286" stroke-linecap="round" stroke-linejoin="round"/>
<path d="M327.876 193.034C327.876 178.311 327.551 163.869 326.092 149.278C325.606 144.421 325.541 139.602 325.541 134.65C325.541 126.39 323.789 118.442 323.789 110.129" stroke="#1E1E1E" stroke-width="5.17286" stroke-linecap="round" stroke-linejoin="round"/>
<path d="M323.789 110.128C317.713 110.128 311.637 110.128 305.561 110.128C304.111 110.128 302.92 109.618 301.604 109.545C300.536 109.485 298.92 108.417 300.955 108.377C309.126 108.217 317.187 106.853 325.281 106.625C333.879 106.383 342.581 105.561 351.23 106.042C352.729 106.125 354.641 107.401 354.733 108.961C354.858 111.096 349.242 110.128 347.727 110.128C334.548 110.128 321.421 110.626 308.48 110.128C304.45 109.973 300.382 110.128 296.349 110.128C294.659 110.128 291.617 109.777 292.976 107.209C293.613 106.005 297.484 106.625 298.684 106.625" stroke="#1E1E1E" stroke-width="5.17286" stroke-linecap="round" stroke-linejoin="round"/>
<path d="M323.205 111.88C323.205 123.412 324.373 134.789 324.373 146.197C324.373 158.003 324.373 169.81 324.373 181.616C324.373 185.014 324.206 188.341 324.924 191.574C325.209 192.856 324.81 194.785 326.968 194.169C327.953 193.887 327.292 187.116 327.292 186.027C327.292 179.046 324.605 172.417 324.373 165.463C324.125 158.027 321.645 149.681 323.497 142.272C324.384 138.724 324.32 133.112 323.497 129.655C322.995 127.544 322.038 125.426 322.038 123.265C322.038 121.526 321.895 118.532 321.421 116.875C321.227 116.196 320.87 113.484 320.87 115.383C320.87 119.622 321.693 123.66 322.005 127.871C322.366 132.748 322.621 137.993 322.621 142.823C322.621 146.221 323.205 149.798 323.205 153.332C323.205 156.956 323.169 153.995 322.751 152.165C321.764 147.845 322.581 143.145 321.746 138.801C320.781 133.784 320.87 127.258 320.87 122.129C320.87 120.446 319.702 119.015 319.702 117.134C319.702 115.503 319.718 113.637 317.951 113.048" stroke="#1E1E1E" stroke-width="5.17286" stroke-linecap="round" stroke-linejoin="round"/>
<path d="M373.066 194.152C373.066 187.377 372.869 181.013 372.132 174.379C371.471 168.423 370.1 163.212 370.1 157.077C370.1 148.344 370.1 139.611 370.1 130.878C370.1 124.231 371.835 117.863 372.077 111.325C372.309 105.081 375.877 107.225 380.206 105.942C385.614 104.34 394.018 100.357 398.551 105.393C408.397 116.333 406.231 134.477 408.712 148.125C410.262 156.648 410.635 166.677 410.635 175.367C410.635 181.647 411.623 187.569 411.623 194.152" stroke="#1E1E1E" stroke-width="5.17286" stroke-linecap="round" stroke-linejoin="round"/>
<path d="M413.6 192.174C413.6 176.422 414.463 160.584 411.678 145.268C410.511 138.851 412.885 128.261 408.877 122.749C406.373 119.307 401.841 111.717 400.693 107.7C399.53 103.631 387.232 101.219 383.941 101.219C377.968 101.219 375.018 102.554 372.077 107.7C369.759 111.757 366.979 116.99 368.342 121.761C369.281 125.047 370.1 127.371 370.1 130.878C370.1 136.978 371.088 142.927 371.088 149.223C371.088 158.122 372.077 166.865 372.077 175.916C372.077 181.006 374.311 192.517 371.857 197.117C371.431 197.917 369.111 188.633 369.111 186.737C369.111 182.269 369.111 177.802 369.111 173.335C369.111 162.149 369.111 150.962 369.111 139.776C369.111 132.04 367.134 108.917 367.134 116.653C367.134 126.924 367.134 137.194 367.134 147.465C367.134 157.469 366.291 168.013 368.068 177.784C369.369 184.941 370.1 192.822 370.1 200.083" stroke="#1E1E1E" stroke-width="5.17286" stroke-linecap="round" stroke-linejoin="round"/>
<path d="M374.055 150.651C382.409 150.651 390.589 149.083 398.771 148.674C401.392 148.543 404.055 148.674 406.68 148.674C412.356 148.674 395.329 148.674 389.654 148.674C383.539 148.674 377.424 148.674 371.309 148.674C368.648 148.674 364.36 148.674 369.551 148.674C378.812 148.674 387.757 149.057 396.794 146.916C399.273 146.329 402.166 145.708 404.703 145.708" stroke="#1E1E1E" stroke-width="5.17286" stroke-linecap="round" stroke-linejoin="round"/>
<path d="M408.658 145.708C396.391 145.708 359.591 145.708 371.858 145.708C382.999 145.708 394.274 145.672 405.252 143.676C410.314 142.756 413.084 141.27 410.855 136.81C409.134 133.37 409.646 129.742 409.646 125.935C409.646 123.486 409.965 116.596 408.108 115.005C403.818 111.328 400.049 105.813 394.817 103.196" stroke="#1E1E1E" stroke-width="5.17286" stroke-linecap="round" stroke-linejoin="round"/>
<path d="M460.428 117.638C460.428 109.906 431.36 91.0608 431.36 107.949C431.36 126.928 434.59 145.215 434.59 164.471C434.59 179.506 427.629 201.613 445.894 201.613C463.693 201.613 463.658 191.086 463.658 175.775" stroke="#1E1E1E" stroke-width="2.58643" stroke-linecap="round" stroke-linejoin="round"/>
<path d="M462.618 126.86C462.618 122.978 458.579 120.076 457.373 116.758C455.827 112.505 452.954 109.681 449.117 107.239C440.116 101.511 434.65 109.629 433.089 118.992C430.711 133.264 435.43 148.196 436.343 162.362C436.92 171.298 437.652 190.114 446.883 195.242C449.277 196.572 451.451 200.293 454.313 200.293C459.701 200.293 462.725 194.583 464.318 189.803C466.194 184.176 466.989 180.086 466.989 174.067C466.989 172.112 467.481 169.45 466.941 167.559C466.029 164.368 465.892 174.115 465.241 177.37C463.234 187.403 461.218 196.796 448.631 196.796C445.756 196.796 440.306 197.86 438.14 195.922C432.811 191.154 433.769 181.362 433.769 174.941C433.769 153.142 430.273 131.647 430.273 109.813C430.273 106.523 428.529 98.4227 432.895 97.3311C441.525 95.1737 447.273 100.719 452.613 106.365C455.944 109.886 458.205 115.479 459.073 120.255C459.465 122.41 457.854 128.119 459.559 129.482C460.467 130.209 459.713 131.738 460.433 129.434C461.889 124.775 461.744 119.359 461.744 114.524C461.744 110.652 461.324 106.166 457.373 104.13C453.436 102.103 437.817 96.7382 436.343 101.896C435.726 104.059 435.518 105.972 435.518 108.502C435.518 110.146 433.991 119.963 433.769 115.301C433.451 108.617 432.476 108.406 439.063 105.442C443.595 103.402 450.203 102.538 455.187 103.305C465.547 104.899 465.241 118.902 465.241 126.86" stroke="#1E1E1E" stroke-width="5.17286" stroke-linecap="round" stroke-linejoin="round"/>
<path d="M464.469 189.261C459.312 194.419 452.4 194.002 445.506 194.002C442.748 194.002 437.743 186.264 439.273 188.559C440.921 191.032 442.139 194.28 444.716 196.285C446.709 197.835 450.769 198.743 450.247 198.743C444.465 198.743 445.842 196.124 442.346 192.422C435.045 184.691 437.605 172.029 437.605 162.045C437.605 154.229 440.051 141.775 436.815 134.654C433.013 126.29 435.255 115.061 432.776 106.384C430.302 97.7265 445.127 99.1855 450.247 99.1855C460.347 99.1855 467.63 105.722 467.63 116.217C467.63 126.302 467.389 116.644 462.099 112.53C459.396 110.428 453.701 108.667 460.519 108.667C464.766 108.667 464.469 114.275 464.469 117.359C464.469 120.497 463.766 123.985 465.698 126.401C466.597 127.524 468.422 134.546 465.698 131.142C464.269 129.355 464.469 122.508 464.469 127.63C464.469 135.821 462.745 126.631 461.66 123.241C460.889 120.83 461.309 129.753 461.309 131.581C461.309 133.696 459.729 123.32 459.729 125.436C459.729 132.731 462.761 125.334 462.801 125.436C462.962 125.838 463.504 136.145 464.382 133.074C468.147 119.895 453.511 100.766 440.765 100.766" stroke="#1E1E1E" stroke-width="5.17286" stroke-linecap="round" stroke-linejoin="round"/>
<path d="M479.597 105.312C489.563 105.312 499.379 106.479 509.502 106.479C514.313 106.479 519.125 106.479 523.936 106.479C525.772 106.479 534.223 104.802 535.061 106.479" stroke="#1E1E1E" stroke-width="5.17286" stroke-linecap="round" stroke-linejoin="round"/>
<path d="M508.789 191.72C508.789 176.998 508.464 162.555 507.005 147.965C506.519 143.108 506.453 138.289 506.453 133.337C506.453 125.076 504.702 117.129 504.702 108.815" stroke="#1E1E1E" stroke-width="5.17286" stroke-linecap="round" stroke-linejoin="round"/>
<path d="M504.702 108.815C498.626 108.815 492.55 108.815 486.473 108.815C485.024 108.815 483.833 108.304 482.516 108.231C481.449 108.172 479.833 107.103 481.867 107.063C490.039 106.903 498.1 105.54 506.194 105.312C514.792 105.07 523.493 104.248 532.142 104.728C533.641 104.811 535.554 106.088 535.645 107.647C535.771 109.782 530.155 108.815 528.639 108.815C515.46 108.815 502.334 109.313 489.392 108.815C485.363 108.66 481.295 108.815 477.262 108.815C475.572 108.815 472.529 108.463 473.888 105.896C474.526 104.692 478.396 105.312 479.597 105.312" stroke="#1E1E1E" stroke-width="5.17286" stroke-linecap="round" stroke-linejoin="round"/>
<path d="M504.118 110.566C504.118 122.099 505.285 133.475 505.285 144.883C505.285 156.69 505.285 168.496 505.285 180.303C505.285 183.701 505.119 187.028 505.837 190.26C506.122 191.543 505.723 193.472 507.88 192.855C508.866 192.574 508.205 185.802 508.205 184.714C508.205 177.732 505.517 171.103 505.285 164.15C505.038 156.714 502.557 148.368 504.41 140.958C505.297 137.411 505.233 131.799 504.41 128.341C503.907 126.231 502.95 124.112 502.95 121.951C502.95 120.213 502.807 117.219 502.334 115.561C502.14 114.883 501.782 112.17 501.782 114.069C501.782 118.308 502.606 122.346 502.918 126.557C503.279 131.435 503.534 136.68 503.534 141.51C503.534 144.907 504.118 148.484 504.118 152.019C504.118 155.642 504.082 152.681 503.664 150.851C502.676 146.531 503.494 141.831 502.658 137.488C501.693 132.47 501.782 125.945 501.782 120.816C501.782 119.133 500.615 117.701 500.615 115.821C500.615 114.19 500.631 112.323 498.863 111.734" stroke="#1E1E1E" stroke-width="5.17286" stroke-linecap="round" stroke-linejoin="round"/>
<path d="M256.729 226.919C256.729 247.863 260.657 268.029 260.657 289.047C260.657 294.651 260.856 304.658 264.877 309.125C269.558 314.327 274.976 313.345 281.609 313.345C298.447 313.345 297.323 283.533 297.323 272.023C297.323 262.643 298.632 253.437 298.632 244.233C298.632 240.233 298.867 236.152 298.632 232.157C298.494 229.808 296.013 228.261 296.013 225.609" stroke="#1E1E1E" stroke-width="5.17286" stroke-linecap="round" stroke-linejoin="round"/>
<path d="M296.014 225.609C296.014 243.918 296.014 262.226 296.014 280.535C296.014 293.902 290.162 313.345 273.753 313.345C265.072 313.345 259.407 306.464 256.148 299.013C254.352 294.91 255.457 289.735 253.82 285.846C252.54 282.807 251.492 279.228 251.492 275.879C251.492 267.735 252.801 259.806 252.801 251.508C252.801 244.095 251.492 236.651 251.492 229.538" stroke="#1E1E1E" stroke-width="5.17286" stroke-linecap="round" stroke-linejoin="round"/>
<path d="M250.898 227.48H250.898" stroke="#1E1E1E" stroke-width="5.17286" stroke-linecap="round" stroke-linejoin="round"/>
<path d="M250.898 227.48C252.913 227.48 254.928 227.48 256.944 227.48C257.3 227.48 256.117 227.424 255.898 227.706C255.25 228.539 255.34 230.332 255.14 231.333C254.749 233.291 254.403 235.051 254.607 237.092C255.352 244.536 254.956 252.156 254.956 259.656C254.956 264.317 254.587 268.939 254.587 273.591C254.587 278.219 255.325 282.811 255.325 287.445C255.325 289.529 255.325 291.612 255.325 293.696C255.325 294.231 255.628 295.209 255.898 294.126C256.824 290.424 257.137 286.573 257.907 282.834C258.565 279.636 258.645 276.629 258.645 273.386C258.645 273.079 258.507 268.175 257.722 268.488C256.643 268.92 257.169 275.841 257.169 276.993C257.169 279.873 257.461 282.72 257.538 285.56C257.659 290.02 258.276 294.565 258.276 299.045" stroke="#1E1E1E" stroke-width="5.17286" stroke-linecap="round" stroke-linejoin="round"/>
<path d="M296.641 223.791C297.269 223.791 301.604 223.363 301.785 223.996C302.332 225.912 301.056 228.372 300.719 230.226C300.594 230.911 300.588 235.073 300.412 234.325C299.83 231.851 300.386 229.124 299.592 226.742" stroke="#1E1E1E" stroke-width="5.17286" stroke-linecap="round" stroke-linejoin="round"/>
<path d="M302.174 225.267C302.174 233.243 302.174 240.984 302.174 248.958C302.174 252.314 301.805 255.497 301.805 258.836C301.805 262.805 301.067 266.745 301.067 270.64C301.067 277.852 299.961 285.105 299.961 292.323C299.961 295.988 298.214 299.882 297.768 303.451C297.546 305.224 295.428 306.423 293.689 306.423" stroke="#1E1E1E" stroke-width="5.17286" stroke-linecap="round" stroke-linejoin="round"/>
<path d="M298.116 294.987C298.116 299.141 299.424 304.951 296.19 308.185C294.716 309.658 293.285 310.529 291.66 311.792C290.599 312.617 289.347 314.212 287.971 314.518C286.69 314.803 284.936 314.858 283.647 314.907C281.702 314.982 279.847 315.645 277.827 315.645C276.413 315.645 274.999 315.645 273.585 315.645C271.915 315.645 270.709 314.862 269.158 314.518C268.009 314.262 266.495 313.491 265.654 312.694C264.483 311.584 262.066 311.006 261.227 309.538C260.434 308.15 259.36 306.83 258.563 305.316C257.503 303.303 256.514 301.221 255.325 299.332C254.454 297.948 254.541 295.98 254.197 294.434C253.814 292.709 253.154 291.03 252.763 289.269C252.405 287.66 252.005 286.035 252.005 284.371C252.005 282.983 252.231 281.421 251.636 280.231" stroke="#1E1E1E" stroke-width="5.17286" stroke-linecap="round" stroke-linejoin="round"/>
<path d="M364.516 228.218C362.105 228.218 359.997 225.774 357.876 224.714C354.834 223.193 351.59 222.58 348.285 221.865C343.803 220.896 337.704 220.311 333.529 222.398C328.999 224.663 325.045 228.414 325.045 233.834C325.045 236.498 324.627 239.496 325.414 242.052C326.032 244.061 326.602 247.738 328.816 248.589C331.741 249.714 334.039 251.448 337.239 251.848C340.511 252.257 343.962 251.932 347.178 252.647C350.281 253.336 353.6 254.929 355.868 257.197C357.213 258.542 360.027 259.875 360.089 261.992C360.134 263.518 360.991 264.533 361.647 265.845C363.798 270.147 366.116 276.09 366.36 280.97C366.518 284.115 367.201 287.547 366.709 290.745C366.48 292.233 365.254 293.743 365.254 295.192C365.254 296.508 364.592 298.027 364.147 299.25C363.45 301.167 362.063 302.904 361.278 304.866C360.35 307.186 357.923 307.653 355.847 308.452C350.935 310.341 345.103 311.587 339.8 310.829C334.768 310.11 327.437 309.023 324.471 304.169C322.414 300.803 321.725 297.934 321.725 294.045C321.725 289.963 320.621 283.18 323.754 280.047C324.005 279.796 325.374 278.641 325.045 278.838C324.022 279.452 324.228 281.143 324.02 282.158C323.073 286.788 322.951 290.919 324.491 295.541C327.298 303.961 335.728 310.749 344.965 309.723C348.029 309.382 351.333 306.695 353.449 304.579C356.33 301.698 359.063 298.745 360.089 294.639C360.361 293.553 360.827 292.837 360.827 291.667C360.827 289.481 360.827 296.039 360.827 298.225C360.827 299.441 361.351 302.043 360.458 303.103C359.952 303.704 359.329 304.623 358.983 305.316" stroke="#1E1E1E" stroke-width="5.17286" stroke-linecap="round" stroke-linejoin="round"/>
<path d="M353.818 307.898C355.128 307.898 356.534 300.868 356.851 299.783C357.581 297.286 358.318 294.87 359.27 292.446C359.815 291.057 360.637 289.821 360.848 288.347C360.949 287.636 361.213 285.658 361.278 285.847C362.241 288.63 363.409 291.819 363.409 294.803C363.409 300.029 363.409 284.351 363.409 279.125C363.409 274.824 362.263 270.868 360.253 267.136C359.254 265.279 357.983 263.595 356.954 261.766C355.783 259.686 355.055 259.477 352.917 258.467C349.025 256.629 344.643 256.242 340.743 254.327C334.483 251.254 328.401 249.317 325.045 242.605C323.964 240.444 324.307 237.764 324.307 235.432C324.307 232.931 325.385 231.663 326.807 229.693C329.751 225.617 334.488 221.638 339.8 221.23C342.566 221.017 346.054 220.256 348.736 221.209C351.321 222.128 353.835 222.933 356.4 223.976C361.824 226.179 362.303 231.244 362.303 236.497C362.303 238.659 362.499 237.574 362.959 235.965C363.378 234.498 363.778 232.877 363.778 231.354C363.778 230.29 363.861 229.615 363.204 228.771C362.284 227.588 362.572 228.41 362.877 229.407C363.66 231.971 364.147 234.306 364.147 236.989C364.147 239.201 365.041 238.22 365.233 236.682C365.412 235.254 365.254 233.718 365.254 232.276C365.254 230.494 362.702 226.72 361.196 225.923C359.922 225.248 358.549 224.474 357.138 224.16C354.891 223.661 351.686 223.23 349.76 221.947" stroke="#1E1E1E" stroke-width="5.17286" stroke-linecap="round" stroke-linejoin="round"/>
<path d="M364.516 239.285C364.516 237.393 364.516 235.5 364.516 233.608C364.516 231.821 363.218 229.835 362.672 228.198C361.711 225.315 360.078 225.668 357.958 224.078C356.693 223.129 352.409 222.356 350.867 222.316C349.139 222.27 347.798 221.953 346.113 221.578C344.946 221.319 346.135 220.919 346.666 220.84C348.484 220.571 350.275 220.198 352.117 220.123C355.45 219.987 362.284 219.065 364.332 222.705C366.736 226.98 366.361 231.909 366.361 236.703" stroke="#1E1E1E" stroke-width="5.17286" stroke-linecap="round" stroke-linejoin="round"/>
</svg>
